<svg xmlns="http://www.w3.org/2000/svg" xmlns:xlink="http://www.w3.org/1999/xlink" width="283" height="168" viewBox="0 0 283 168">
  <defs>
    <clipPath id="clip-vp_3">
      <rect width="283" height="168"/>
    </clipPath>
  </defs>
  <g id="vp_3" data-name="vp – 3" clip-path="url(#clip-vp_3)">
    <g id="Untitled_1_" data-name="Untitled (1)" transform="translate(270.916 55.931)">
      <rect id="Rectangle_2" data-name="Rectangle 2" width="313" height="177" transform="translate(-284.916 -62.931)" fill="none"/>
      <g id="_311727" data-name="311727" transform="translate(-260.26 -42.441)">
        <path id="Path_3" data-name="Path 3" d="M-258.79,42.41h0a3.407,3.407,0,0,1-3.11-1.49,8.3,8.3,0,0,1-1.21-2.97h0l-5.27-95.58a4.564,4.564,0,0,1,.68-3.03,3.4,3.4,0,0,1,2.97-1.15h0q2.7,0,3.57,1.28a4.419,4.419,0,0,1,.88,2.5h0l4.05,86.94-.94-.41,41.85-86.4a9.948,9.948,0,0,1,2.22-2.97,5.365,5.365,0,0,1,3.45-.94h0a3.4,3.4,0,0,1,2.9,1.35q1.01,1.35-.2,3.78h0l-46.98,95.04a15.5,15.5,0,0,1-1.69,2.9A3.773,3.773,0,0,1-258.79,42.41Z" transform="translate(268.398 61.81)"/>
        <path id="Path_10" data-name="Path 10" d="M91.8,42.41h0a3.618,3.618,0,0,1-3.11-1.28,3.551,3.551,0,0,1-.53-3.04h0l16.73-95.58a7.618,7.618,0,0,1,1.36-3.11q.94-1.21,3.5-1.21h0q17.28,0,29.64,2.9t18.56,9.05q6.21,6.14,4.86,15.99h0q-1.35,9.32-6.55,14.85a31.406,31.406,0,0,1-13.57,8.24A85.1,85.1,0,0,1,123.53-7.2q-10.81.87-23.36.87h0l1.08-7.42q10.4,0,19.64-.74A82.928,82.928,0,0,0,137.5-17.4a29.859,29.859,0,0,0,11.88-6.27,17.55,17.55,0,0,0,5.46-11.01h0a11.916,11.916,0,0,0-1.48-8.16,17.145,17.145,0,0,0-7.29-6.15,49,49,0,0,0-13.43-3.98,130.565,130.565,0,0,0-20.19-1.55h0L96.12,38.36a7.681,7.681,0,0,1-.88,2.63Q94.5,42.41,91.8,42.41Z" transform="translate(-37.371 108.52)" fill="#106eec"/>
        <path id="Path_11" data-name="Path 11" d="M183.73,43.08h0q-8.37,0-12.42-5.33T168.88,23.1h0l5.94-33.48a11.019,11.019,0,0,1,.75-2.02q.6-1.35,3.71-1.35h0q2.7,0,3.17,1.42a5.775,5.775,0,0,1,.34,2.49h0l-5.94,33.48q-.95,5.4,1.08,8.71a6.889,6.889,0,0,0,6.34,3.31h0q4.73,0,9.93-5.2t12.35-16.27h0l-1.62,11.48q-5.8,9.31-10.73,13.36A16.24,16.24,0,0,1,183.73,43.08Zm19.71-.67h0q-2.02,0-2.49-1.15a7.145,7.145,0,0,1-.34-3.17h0l8.5-48.06a11.514,11.514,0,0,1,.88-2.23q.74-1.55,3.71-1.55h0q2.7,0,3.24,1.35a4.98,4.98,0,0,1,.41,2.43h0l-8.51,48.06a6.542,6.542,0,0,1-.94,2.36,4.093,4.093,0,0,1-1.76,1.49A6.783,6.783,0,0,1,203.44,42.41Z" transform="translate(-24.339 61.14)" fill="#106eec"/>
        <path id="Path_12" data-name="Path 12" d="M234.9,42.41h0a3.663,3.663,0,0,1-2.7-1.08,3.434,3.434,0,0,1-.67-3.24h0L239.9-9.43a4.439,4.439,0,0,1,1.75-3.24,4.865,4.865,0,0,1,2.84-1.08h0a3.538,3.538,0,0,1,2.63,1.21,4.133,4.133,0,0,1,.74,3.65h0l-8.23,46.98a4.516,4.516,0,0,1-1.76,3.24A5.046,5.046,0,0,1,234.9,42.41Zm7.83-28.22h0l2.43-11.74a43.632,43.632,0,0,1,5.94-9.32,25.512,25.512,0,0,1,6.55-5.67,12.684,12.684,0,0,1,6.28-1.89h0q2.7,0,3.77,1.15a15.783,15.783,0,0,1,1.83,2.3,2.471,2.471,0,0,0,2.22,1.14h0a5.714,5.714,0,0,0,2.7-.81q1.49-.81,2.3-1.35h0a7.59,7.59,0,0,1,3.38-1.28,4.9,4.9,0,0,1,2.97.47,2.545,2.545,0,0,1,1.21,2.43h0a4.654,4.654,0,0,1-1.35,3.31,14.043,14.043,0,0,1-3.24,2.5h0a14.752,14.752,0,0,1-4.46,1.89,16.819,16.819,0,0,1-3.64.54h0a6.242,6.242,0,0,1-3.98-1.22,27.764,27.764,0,0,1-2.7-2.36,3.37,3.37,0,0,0-2.37-1.15h0a8.132,8.132,0,0,0-3.84,1.62A34.431,34.431,0,0,0,252.31.9,124.673,124.673,0,0,0,242.73,14.19Z" transform="translate(-20.785 61.14)" fill="#106eec"/>
      </g>
    </g>
  </g>
</svg>
