<svg xmlns="http://www.w3.org/2000/svg" xmlns:xlink="http://www.w3.org/1999/xlink" width="1133" height="412" viewBox="0 0 1133 412">
  <defs>
    <clipPath id="clip-vp">
      <rect width="1133" height="412"/>
    </clipPath>
  </defs>
  <g id="vp" clip-path="url(#clip-vp)">
    <rect id="Rectangle_1" data-name="Rectangle 1" width="1133" height="412" fill="none"/>
    <g id="SvgjsG1008" transform="translate(26.25 38.83)">
      <g id="Group_2" data-name="Group 2">
        <g id="Group_1" data-name="Group 1" transform="translate(0 341)">
          <path id="Path_1" data-name="Path 1" d="M156.4-338.8c-11.5,3.8-21.1,13.6-25,25.7-2.6,7.7-2.5,22.4.1,30.6,3.1,9.7,9.5,20.4,15.7,26.1,3.8,3.6,12.2,9.4,13.6,9.4,1.6,0,7.2,3.1,7.2,4,0,1.8-10.3,25.3-16.4,37.1-10.7,21.3-33.5,53.6-48.1,68.4a187.869,187.869,0,0,1-14.8,11.9c-7.2,4.5-15.4,5-19.2,1.2-7.8-7.8-9.5-35.1-4.3-68.1,4.7-29.5,17-66.8,29-87.2,4.3-7.4,4.7-9.9,1.7-13.7-4.3-5.5-12.6-7.3-18.5-4-1.6.9-19.5,11.8-39.9,24.3L.5-250.5v22l3.2-.2c3.5-.3,5.2-1.3,29.1-16.1,11.1-6.9,16.2-9.6,16.2-8.5,0,.8-1.6,5.9-3.6,11.2C40.1-228.2,38-220.9,34.7-206c-3.1,14.2-5.7,35.4-5.7,46.1,0,16,4.5,35.2,10.5,45.4,4.4,7.5,9.2,11.8,17.5,15.7,5.8,2.8,7.4,3.1,16.5,3.2,13.8.1,24.2-3.4,37.7-12.5,30.4-20.7,67.1-72.4,86.6-122.4l5.1-13,4-1c2.2-.6,4.3-1.3,4.7-1.8a3.7,3.7,0,0,1,2.3-.7c.9,0,4.3-1.4,7.6-3,3.3-1.7,6.1-3,6.2-3,.2,0,.3,1,.3,2.2.1,4.3,4.5,11.2,8.6,13.5,3.2,1.9,5.5,2.3,12.5,2.3,7.7,0,8.9-.3,13.1-2.9,6.5-4.1,8.3-7.8,8.3-17.2,0-6.8-.3-7.9-2.9-11.4a19.992,19.992,0,0,0-6.7-5.4c-3.4-1.4-3.7-1.8-3.2-4.8.7-4.3-.3-7.8-2.9-10.3-3.6-3.3-8-2.6-16.1,2.7A121.035,121.035,0,0,1,216-272l-5.2,2.1.6-6.3c.3-3.5.8-9.1,1.2-12.6.6-6-.1-12.1-2.8-23.2-3.4-14-13.3-24.1-27.4-27.9C175.9-341.6,163.4-341.1,156.4-338.8Zm18.8,25.6a11.765,11.765,0,0,1,3.9,4.1c1.7,3.7,2.3,17.4,1,25.1-2.5,15.7-2.6,15.8-8.3,12.9-5.5-2.8-10.1-7.9-13.7-15-4.6-9.2-4.4-18.2.7-25.7,1.3-2,8.3-4.1,11.2-3.5A24.646,24.646,0,0,1,175.2-313.2Z" fill="#fff"/>
          <path id="Path_2" data-name="Path 2" d="M332.2-319.5c-15.5,7.3-31.8,27.5-42.7,53-.9,2.2-2.1,4.9-2.6,6s-1.8,4.7-2.9,8c-1.2,3.3-2.5,6.9-3,8s-1.4,3.8-2.1,6a51.893,51.893,0,0,1-2,6c-.4,1.1-1,3.1-1.4,4.5-.3,1.4-1.1,4.1-1.6,6-2,6.9-4.2,16.6-5.9,25.5-2.5,13.2-3.1,17.8-3.7,28.1l-.5,11.1-5.2,5.5c-10.5,11.1-20.3,16.6-27.1,15.4-5.5-1.1-6.7-3.8-6.7-15.8.1-14.8,4.2-30,13.1-47.6,5-9.9,3.8-14.7-4.6-18.3-5.8-2.5-8.7-2.4-14.8.5-11.1,5.1-18.7,21.8-25.4,55.4-3.8,18.9,2.9,39.5,15.4,47.2,9.8,6.1,18.9,6.3,36.6,1.1,4.4-1.4,19.4-10.3,23-13.7l2.7-2.5,2,3.3c1.9,3,7.4,8.7,11.4,11.7,7.7,5.7,24.6,6.7,36.3,2.1,1.1-.4,3.5-1.4,5.3-2.1,4.8-1.7,14.4-8.1,19.6-12.9,4.1-3.8,4.5-4,5.1-2.1.9,3,7.9,11.5,11.5,14.1,12.9,9.2,33.9,7.6,51.9-3.8l5.3-3.4,4.2,4c6.5,6.3,13.8,9.2,23.1,9.2,10.6,0,19.6-4.4,27.2-13.5,2-2.5,4.1-4.5,4.5-4.5s1.5,1.4,2.3,3.1c2.5,4.7,8.8,10.3,13.4,11.6,5,1.6,13.7,1.7,18.2.2,5.4-1.7,8-3,14.6-7.6l6.3-4.2,2.6,3.5c7.5,9.8,26.8,14.4,40.2,9.5,5.6-2.1,6.8-2.8,11.6-7l2.9-2.6-.7,4c-.3,2.2-.6,4.5-.6,5.2,0,.6-2.1,2.3-4.7,3.9C560.9-94.9,537-75.6,526.4-61.8c-11.2,14.5-14.7,29.6-9.6,41.8,1.5,3.6,8.1,9.6,12.7,11.6,5.3,2.2,21.3,2.2,27.8,0,17.6-6,29.5-19.5,39.7-45.1,4.9-12.1,14-41.6,14-45,0-.7,12.4-7.7,26.5-15l13-6.6,8,3.9c10.6,5.3,14.4,6.2,26.5,6.2,9.5,0,12.6-.4,22-3.1,7.3-2.1,18.9-7.9,26.1-13l2.5-1.8-1.4,6.2c-.7,3.4-1.7,7.8-2.2,9.7-.4,1.9-1.3,6-2,9s-1.6,7.1-2,9-1.3,6-2,9-1.6,7.3-2.1,9.5-1.4,6.5-2,9.5l-2,10c-2.1,10-3.2,19.8-2.5,22.3.5,2.3,1.2,2.7,4.4,2.7,8.6,0,21.2-9.6,25.7-19.5a141.025,141.025,0,0,0,5.2-17c2.8-11.3,3.6-14.6,6.4-27.8.6-2.8,1.5-6.5,2-8.1a22.507,22.507,0,0,0,.9-5.5c0-5.2,1.3-5.8,7.1-3.1,4.3,2,6.7,2.5,13.1,2.4,4.4-.1,8.9-.6,10.1-1.1,11-5,14.2-6.8,19.4-11.1,7.2-6,14.9-15.9,20.3-26.3,3.8-7.3,4.2-7.8,9.7-10a116.5,116.5,0,0,0,12.3-6.1c3.6-2.1,6.6-3.4,6.8-2.9a12.924,12.924,0,0,1-.7,4.8c-1.6,5.8-1.3,24,.5,29.2,3.1,8.9,7.2,15.2,11.9,18.1,9.9,6.1,22.6,6.3,34.8.5,5.1-2.4,13.2-9.8,17.2-15.8,3.4-5.1,4.4-5.1,4.3-.1-.1,4.4,4.4,13.7,7.8,16.1a24.711,24.711,0,0,0,14.1,4.3c7.8,0,22.6-4.8,27.9-9.1.7-.6,2.6.5,5.3,3.1,4,3.8,4.5,4,10.4,4,8.3,0,14.3-3.6,17.5-10.4a29.058,29.058,0,0,0,2.2-5.4c0-.9,6-16.1,9.2-23.2,1.1-2.5,3.1-7,4.5-10,1.3-3,3-6.7,3.7-8.3l1.3-2.7,1.3,4.1c3.9,11.7,21.3,15.3,42.3,8.7l3.7-1.1v-13.4c0-7.3-.2-13.3-.5-13.3-.2,0-2.6.7-5.2,1.6a38.374,38.374,0,0,1-9.2,1.8c-5.4.1-5.4,0-1.5-9.4a33.64,33.64,0,0,0,2.8-12.8c.1-5.9-.1-6.5-3.1-9.2-4.3-3.8-12.5-5-17.7-2.5-5.3,2.5-16.6,15.2-25.4,28.6-11.2,17-10.4,15.8-9.7,12.9,2.5-11.3,4.2-19.5,5.4-27.4,1.3-7.8-.4-11.7-6.3-14.6-4-1.9-4.5-1.9-8.7-.5A24.737,24.737,0,0,0,988.1-207c-1.6,3-4.4,13-6.6,23.3-1.1,5.3-3.5,25.1-3.5,29.2,0,3.6-.5,4.5-4.3,7.7-8.6,7.1-15.9,9.6-18.7,6.3-1-1.2-1-3-.1-8.2,1.3-7.9,2.7-14.9,4.1-21.3.6-2.5,1.5-6.1,1.9-8s2.9-9.7,5.4-17.2c2.6-7.5,4.7-14.8,4.7-16.1,0-6.7-12.4-10.9-21.3-7.2-6.5,2.7-8.3,6.3-16.7,33.5-6.2,19.8-7.4,23.2-10.7,29-8.2,14.5-25.2,23.7-30,16.3-5.1-7.8,1-38.6,12.9-64.3,3.7-8.1,2.2-11.6-6-14.4-6.2-2.2-10-2-14.2.5-4.5,2.8-6.9,5.7-11.6,13.7-2.8,4.7-5.8,7.9-11.3,12.3-7.6,5.9-18.8,12.5-19.7,11.6-.3-.3-.7-3.8-.8-7.8-.4-9.1-1.7-13.4-5.9-19.6-7.2-10.8-19.4-14.4-36.5-10.8-17.7,3.7-26.7,10.1-37.4,26.5a122.322,122.322,0,0,0-12.9,25.5c-1.8,4.9-3.6,9.4-4,9.8-.4.5-1.7.4-2.9-.3-2.9-1.6-5.8-.7-10,3.1-10.2,9.1-26.6,15.9-40.1,16.7-10.9.6-14.9-.2-18.5-3.5l-2.8-2.6,5.4-1.3c20.4-5,31.7-10.3,40.2-18.6,9.9-9.6,13.5-20.7,10.4-32.6-2.6-10.1-8.2-17.2-16.5-20.9-5.8-2.6-22.1-2.2-29.6.7-11.5,4.4-22.1,13.3-30.4,25.6-8.7,13-12.6,25-12.4,39.1l.1,9.3-10.4,7c-6.7,4.5-10.4,6.5-10.4,5.5a81.685,81.685,0,0,1,2-9.2c2.7-10.7,9.5-38.9,12-49.6,3.2-13.8,2.6-17.4-3.5-21.6-2.9-1.9-4.4-2.2-10-1.9-5.4.2-6.6,0-7.1-1.4-1.1-3.7-5.5-5.2-14.4-5-15.9.3-28.8,6.2-42.5,19.4-13.3,12.7-19,21.9-22.6,36.3-1.7,6.6-6.3,12.2-14.2,17.4-12.4,8.1-17,6.4-14.8-5.3,2.3-12.2,3.1-16.2,3.6-19.6.2-1.9,1-6.2,1.6-9.5,4.5-24.9,4.6-26.3,1.6-30-2.4-2.8-2.8-2.9-10.1-2.8-7.2.1-7.6,0-7.6-2.2,0-3.9-6.5-7.5-13.6-7.5-6.5,0-19.7,4.1-27.9,8.7-11.6,6.4-25,20.9-30.8,33.1-3.7,7.9-4.6,11.5-5.9,22.2-.9,8.1-1.1,8.7-4.9,12.2-6.3,5.7-13.2,8.8-20.2,8.8-5.2,0-6.2-.3-8.5-2.8-3.4-3.7-5.2-10.3-5.2-19.3v-7.2l11-10.4c6-5.7,13.8-13.9,17.3-18.1,6.9-8.4,17.8-23.2,19.9-27.2.7-1.4,2.6-4.4,4.1-6.7a26.109,26.109,0,0,0,2.7-5,5.328,5.328,0,0,1,1.4-2.2c2.9-3.3,13.5-26,17-36.4,2.8-8.4,3.8-13.1,4.2-21,.9-15.1-1.9-22.7-10.1-27.5-3.6-2-5.1-2.2-14.1-2-9.1.3-10.6.6-16.7,3.7q-32.25,16.35-54,85.6c-5.5,17.4-8.5,31-12.6,56.6a92.021,92.021,0,0,0-1.1,12.1v5.5l-8.2,7.9c-10.7,10.2-18.4,14.4-26.4,14.4-3.3,0-6.6-.6-7.5-1.3-3.6-2.7-5.3-8-5.7-18l-.4-9.7,12.4-12.3a214.083,214.083,0,0,0,31.9-38.4,198.308,198.308,0,0,0,13.5-22.1c6-10.6,7.3-13.2,10.7-21.2,7.2-16.9,9.2-25.3,9.1-37.5-.1-13.5-2.5-18.8-10.7-23.4-3.1-1.7-5.4-2.1-13-2.1C340.3-322.9,338.8-322.6,332.2-319.5Zm9.6,29.7c3.5,3.5-.8,19.3-11,40.6-7.2,15.1-24.9,43.5-29.3,47.2-1.4,1.2-1.5.8-.9-3.1,1.1-7.4,4.2-20.2,8-33,3.5-11.9,4.2-14,7-20.6a15.747,15.747,0,0,0,1.4-4c0-1.1,7.1-15.1,9.5-18.8,2.7-4.1,3.6-5,7.6-7.4C338-291.3,340.1-291.5,341.8-289.8Zm80.3,1c3,5.7-6.1,30.4-20.8,56.3-6.6,11.5-8.5,14.6-14.8,23.5l-6,8.5-.3-3.4a29.284,29.284,0,0,1,.8-8c.6-2.5,1.5-6.2,2-8.1,6.6-27,16.2-52.1,23.9-62.8C412.4-290.3,419.7-293.2,422.1-288.8Zm61.5,92c-.3,1.8-1,5.1-1.5,7.3s-1.8,8.5-3,14c-3.4,16.4-5.4,21.9-10.5,28.8-6.4,8.7-22.1,10.6-25.5,3-1.9-4.1-1.4-17.6.9-23.3,6.3-16,20.3-29.4,33.2-31.9C484.3-200.3,484.3-200.3,483.6-196.8ZM604-192.5a19.232,19.232,0,0,1-.9,2.7,55.055,55.055,0,0,0-1.9,6.3c-7.4,28.7-11.5,37.8-20.2,43.6-3.6,2.4-5.3,2.9-10.6,2.9-6,0-6.4-.2-7.9-3-7.8-15.1,12.6-45.5,34.5-51.4C603.2-193.1,604-193.2,604-192.5Zm204.7,2,2.8,2.5-2.2,1.9c-1.2,1-3.7,3.1-5.4,4.5-7.5,6.3-7.6,19-.3,24.3,2.7,2,2.8,2.2,1.4,4.9-2.2,4.2-11.1,12.8-15.5,14.8-6,2.9-10.6,3.1-15.9.8-2.5-1.2-4.6-2.7-4.6-3.5,0-2.3,5.8-20.8,8.8-28.2,2.5-5.9,7.9-16.1,9.9-18.6C792.5-192.9,803.9-194.8,808.7-190.5Zm-108.3.7c4.8,7.7-7.8,19.8-29.8,28.7l-2.9,1.2.5-4.5c.8-6.5,5-14.5,10.6-20.1,5.4-5.4,9.5-7.3,15.9-7.4C698.1-192,699.3-191.5,700.4-189.8ZM584.5-80.8c-1.7,8.5-9.7,26.1-15.4,33.7-5.9,7.9-9.4,11.3-14.6,13.7-8.6,4.1-12.8,2.6-12.8-4.4,0-9.7,9.9-21.9,30.3-37.4,6.3-4.8,11.9-8.8,12.3-8.8C584.8-84,584.9-82.5,584.5-80.8Z" fill="#fff"/>
        </g>
      </g>
    </g>
  </g>
</svg>
