<svg xmlns="http://www.w3.org/2000/svg" width="131" height="139" viewBox="0 0 131 139">
  <g id="Untitled_1_" data-name="Untitled (1)" transform="translate(250.475 24.04)">
    <rect id="Rectangle_2" data-name="Rectangle 2" width="131" height="139" transform="translate(-250.475 -24.04)" fill="none"/>
    <g id="_311727" data-name="311727" transform="translate(-248.998 -23.925)">
      <path id="Path_3" data-name="Path 3" d="M-258.79,42.41h0a3.407,3.407,0,0,1-3.11-1.49,8.3,8.3,0,0,1-1.21-2.97h0l-5.27-95.58a4.564,4.564,0,0,1,.68-3.03,3.4,3.4,0,0,1,2.97-1.15h0q2.7,0,3.57,1.28a4.419,4.419,0,0,1,.88,2.5h0l4.05,86.94-.94-.41,41.85-86.4a9.948,9.948,0,0,1,2.22-2.97,5.365,5.365,0,0,1,3.45-.94h0a3.4,3.4,0,0,1,2.9,1.35q1.01,1.35-.2,3.78h0l-46.98,95.04a15.5,15.5,0,0,1-1.69,2.9A3.773,3.773,0,0,1-258.79,42.41Z" transform="translate(268.398 61.81)"/>
      <path id="Path_10" data-name="Path 10" d="M91.8,42.41h0a3.618,3.618,0,0,1-3.11-1.28,3.551,3.551,0,0,1-.53-3.04h0l16.73-95.58a7.618,7.618,0,0,1,1.36-3.11q.94-1.21,3.5-1.21h0q17.28,0,29.64,2.9t18.56,9.05q6.21,6.14,4.86,15.99h0q-1.35,9.32-6.55,14.85a31.406,31.406,0,0,1-13.57,8.24A85.1,85.1,0,0,1,123.53-7.2q-10.81.87-23.36.87h0l1.08-7.42q10.4,0,19.64-.74A82.928,82.928,0,0,0,137.5-17.4a29.859,29.859,0,0,0,11.88-6.27,17.55,17.55,0,0,0,5.46-11.01h0a11.916,11.916,0,0,0-1.48-8.16,17.145,17.145,0,0,0-7.29-6.15,49,49,0,0,0-13.43-3.98,130.565,130.565,0,0,0-20.19-1.55h0L96.12,38.36a7.681,7.681,0,0,1-.88,2.63Q94.5,42.41,91.8,42.41Z" transform="translate(-35.005 96.475)" fill="#106eec"/>
    </g>
  </g>
</svg>
